<svg width="192" height="192" viewBox="0 0 192 192" fill="none" xmlns="http://www.w3.org/2000/svg">
<rect width="192" height="192" rx="29" fill="#A3E635"/>
<g clip-path="url(#clip0_2_6)" filter="url(#filter0_d_2_6)">
<path d="M25.8065 80.5161L29.4194 69.6351L73.9378 120.139C75.5064 122.168 77.9322 122.579 80.5161 123.124C83.1 123.669 85.6803 124.313 88.0945 123.124L139.366 99.216C141.75 98.0996 143.702 96.2435 144.897 93.9542C146.092 91.6649 146.46 89.0794 145.94 86.6248L137.324 45.5631L48.359 87.0481M101.118 147.084C102.401 149.836 101.095 153.162 98.1994 154.512C95.3041 155.862 91.9165 154.726 90.6331 151.973C89.3496 149.221 90.6563 145.895 93.5516 144.545C96.447 143.195 99.8346 144.332 101.118 147.084ZM158.785 120.193C160.069 122.946 158.762 126.272 155.867 127.622C152.971 128.972 149.584 127.835 148.3 125.083C147.017 122.33 148.324 119.005 151.219 117.654C154.114 116.304 157.502 117.441 158.785 120.193Z" stroke="black" stroke-width="10" stroke-linecap="round" stroke-linejoin="round"/>
<rect x="92.9032" y="145.548" width="6.19355" height="6.19355" fill="black"/>
<rect x="152.774" y="118.71" width="6.19355" height="6.19355" fill="black"/>
</g>
<path d="M146.581 122.839H161.032M153.806 115.613V130.065" stroke="#A3E635" stroke-width="2" stroke-linecap="round" stroke-linejoin="round"/>
<defs>
<filter id="filter0_d_2_6" x="1.16129" y="7.2258" width="189.593" height="186.277" filterUnits="userSpaceOnUse" color-interpolation-filters="sRGB">
<feFlood flood-opacity="0" result="BackgroundImageFix"/>
<feColorMatrix in="SourceAlpha" type="matrix" values="0 0 0 0 0 0 0 0 0 0 0 0 0 0 0 0 0 0 127 0" result="hardAlpha"/>
<feOffset dy="4"/>
<feGaussianBlur stdDeviation="2"/>
<feComposite in2="hardAlpha" operator="out"/>
<feColorMatrix type="matrix" values="0 0 0 0 0 0 0 0 0 0 0 0 0 0 0 0 0 0 0.25 0"/>
<feBlend mode="normal" in2="BackgroundImageFix" result="effect1_dropShadow_2_6"/>
<feBlend mode="normal" in="SourceGraphic" in2="effect1_dropShadow_2_6" result="shape"/>
</filter>
<clipPath id="clip0_2_6">
<rect width="138.826" height="131.971" fill="white" transform="translate(5.16129 65.8964) rotate(-25)"/>
</clipPath>
</defs>
</svg>
